<?xml version="1.0" encoding="UTF-8" standalone="no"?>
<!DOCTYPE svg PUBLIC "-//W3C//DTD SVG 20010904//EN"
              "http://www.w3.org/TR/2001/REC-SVG-20010904/DTD/svg10.dtd">

<svg xmlns="http://www.w3.org/2000/svg"
     width="1.77756in" height="1.77756in"
     viewBox="0 0 128 128">
  <path id="Selection"
        fill="none" stroke="black" stroke-width="1"
        d="M 41.53,10.01
           C 53.67,-5.50 79.65,-3.13 89.10,14.00
             93.13,21.32 92.00,29.93 92.00,38.00
             92.00,38.00 108.00,38.00 108.00,38.00
             110.92,38.02 114.87,37.66 116.71,40.43
             118.60,43.26 117.81,51.27 118.17,55.00
             118.17,55.00 120.91,93.00 120.91,93.00
             120.91,93.00 122.03,117.00 122.03,117.00
             122.26,119.54 123.57,124.33 122.03,126.40
             120.45,128.37 116.27,128.00 114.00,128.00
             114.00,128.00 14.00,128.00 14.00,128.00
             11.71,128.00 7.57,128.38 5.93,126.40
             4.33,124.24 5.59,119.56 5.93,117.00
             5.93,117.00 7.17,93.00 7.17,93.00
             7.17,93.00 10.01,52.00 10.01,52.00
             10.21,44.23 9.81,38.17 19.00,38.00
             19.00,38.00 36.00,38.00 36.00,38.00
             36.00,27.76 34.75,18.68 41.53,10.01 Z
           M 83.33,18.00
           C 76.09,4.21 57.37,1.91 47.39,14.04
             41.61,21.06 42.00,29.50 42.00,38.00
             42.00,38.00 86.00,38.00 86.00,38.00
             86.00,30.99 86.72,24.46 83.33,18.00 Z
           M 17.00,45.00
           C 17.00,45.00 16.09,58.00 16.09,58.00
             16.09,58.00 13.91,97.00 13.91,97.00
             13.91,97.00 12.00,122.00 12.00,122.00
             12.00,122.00 116.00,122.00 116.00,122.00
             116.00,122.00 115.00,107.00 115.00,107.00
             115.00,107.00 114.04,95.00 114.04,95.00
             114.04,95.00 111.91,54.00 111.91,54.00
             111.91,54.00 111.00,45.00 111.00,45.00
             111.00,45.00 92.00,45.00 92.00,45.00
             92.53,51.94 95.94,54.08 93.96,57.89
             91.27,63.06 84.29,61.59 83.65,56.00
             83.26,52.54 85.78,52.70 86.00,45.00
             86.00,45.00 42.00,45.00 42.00,45.00
             42.51,52.16 45.74,54.27 43.93,57.89
             41.35,63.08 34.29,61.57 33.65,56.00
             33.26,52.54 35.78,52.70 36.00,45.00
             36.00,45.00 17.00,45.00 17.00,45.00 Z" />
</svg>
