<?xml version="1.0" encoding="UTF-8" standalone="no"?>
<!DOCTYPE svg PUBLIC "-//W3C//DTD SVG 20010904//EN"
              "http://www.w3.org/TR/2001/REC-SVG-20010904/DTD/svg10.dtd">

<svg xmlns="http://www.w3.org/2000/svg"
     width="1.77756in" height="1.77756in"
     viewBox="0 0 128 128">
  <path id="Selection"
        fill="none" stroke="black" stroke-width="1"
        d="M 37.00,19.30
           C 40.43,19.90 45.48,17.97 49.00,17.13
             53.01,16.17 59.86,15.57 64.00,15.57
             67.24,15.57 74.88,16.18 78.00,16.89
             81.91,17.77 87.16,19.88 91.00,19.12
             91.00,19.12 112.00,10.81 112.00,10.81
             114.44,10.06 118.15,8.38 120.19,10.81
             122.61,12.84 120.95,16.57 120.19,19.00
             118.46,22.84 112.90,33.63 113.22,37.00
             113.46,39.47 116.92,45.18 118.13,48.00
             120.60,53.76 121.93,59.74 122.00,66.00
             122.25,88.83 108.89,106.11 88.00,114.55
             51.48,129.30 5.50,107.81 6.00,65.00
             6.08,58.60 7.67,52.82 10.31,47.00
             11.50,44.38 14.54,39.49 14.78,37.00
             15.52,29.19 2.21,16.67 8.32,10.06
             15.01,8.24 29.32,17.95 37.00,19.30 Z
           M 23.52,38.00
           C 23.24,40.83 17.99,48.15 16.28,52.00
             12.18,61.66 12.17,72.32 16.28,82.00
             30.48,115.98 82.96,121.56 105.32,93.00
             114.61,81.14 117.31,67.16 111.94,53.00
             111.94,53.00 104.48,38.00 104.48,38.00
             104.16,34.71 109.47,23.82 111.00,20.00
             111.00,20.00 89.00,27.58 89.00,27.58
             89.00,27.58 78.00,24.48 78.00,24.48
             78.00,24.48 61.00,23.00 61.00,23.00
             61.00,23.00 39.00,27.58 39.00,27.58
             39.00,27.58 18.00,20.00 18.00,20.00
             17.56,26.40 24.12,31.91 23.52,38.00 Z
           M 56.99,49.00
           C 58.14,51.80 58.53,59.35 53.28,57.34
             50.32,56.22 50.23,50.72 45.96,49.74
             40.09,48.40 39.44,57.37 35.05,57.37
             31.69,57.37 31.59,53.37 32.10,51.00
             33.20,45.94 36.50,43.54 41.00,41.65
             47.64,40.34 54.23,42.23 56.99,49.00 Z
           M 94.26,47.04
           C 95.72,49.27 97.38,56.15 93.70,57.26
             89.39,58.55 88.70,50.81 83.98,49.74
             77.42,48.26 77.79,59.53 72.30,57.34
             69.88,56.38 69.95,53.11 70.40,51.00
             71.56,45.54 75.02,43.13 80.00,41.53
             85.77,40.64 90.84,41.83 94.26,47.04 Z
           M 65.00,67.07
           C 65.00,67.07 69.94,67.07 69.94,67.07
             74.66,67.94 74.06,71.44 72.65,75.00
             70.38,80.73 65.00,87.57 74.04,91.13
             83.15,94.72 85.42,81.64 88.28,80.40
             93.45,78.16 93.02,86.37 92.20,89.00
             89.99,96.07 82.25,100.42 75.00,99.66
             69.29,99.07 66.79,95.96 64.00,95.96
             62.05,95.96 59.13,97.99 57.00,98.74
             51.75,100.59 45.55,99.66 41.04,96.35
             37.44,93.71 34.96,89.56 35.10,85.02
             35.17,82.52 36.52,78.99 39.71,80.40
             41.92,81.38 42.01,84.43 43.73,86.96
             47.10,91.89 53.14,93.62 57.42,88.66
             63.43,81.67 50.79,75.11 55.60,68.02
             58.95,66.59 61.41,66.99 65.00,67.07 Z" />
</svg>
