<?xml version="1.0" encoding="UTF-8" standalone="no"?>
<!DOCTYPE svg PUBLIC "-//W3C//DTD SVG 20010904//EN"
              "http://www.w3.org/TR/2001/REC-SVG-20010904/DTD/svg10.dtd">

<svg xmlns="http://www.w3.org/2000/svg"
     width="1.77756in" height="1.77756in"
     viewBox="0 0 128 128">
  <path id="Selection"
        fill="none" stroke="black" stroke-width="1"
        d="M 21.00,39.61
           C 26.75,37.27 30.42,38.91 33.39,36.40
             33.39,36.40 40.09,28.09 40.09,28.09
             46.16,21.96 55.28,17.12 64.00,17.17
             64.00,17.17 77.00,17.17 77.00,17.17
             85.94,18.88 96.19,26.46 101.04,34.00
             106.22,42.05 105.69,47.11 107.74,49.70
             109.83,52.35 113.47,52.68 117.98,56.38
             125.65,62.66 127.99,70.51 127.81,80.00
             128.00,82.72 128.14,87.50 127.81,90.00
             125.77,98.64 117.76,108.45 109.00,110.86
             106.98,111.08 104.11,111.00 102.00,110.86
             102.00,110.86 25.00,110.86 25.00,110.86
             13.85,110.98 3.32,104.34 0.24,93.00
             -0.15,90.52 -0.03,85.70 0.24,83.00
             0.10,76.08 2.59,69.33 9.00,66.00
             6.02,55.50 10.52,43.87 21.00,39.61 Z
           M 87.91,33.33
           C 83.37,29.25 78.90,27.69 73.00,26.87
             56.61,24.59 43.90,33.18 39.00,49.00
             30.34,47.37 19.78,46.18 17.77,58.00
             17.22,61.23 17.99,62.16 18.36,65.00
             19.26,71.85 13.51,70.85 10.61,79.00
             9.75,81.41 9.29,84.45 9.53,87.00
             10.75,100.41 20.83,101.98 32.00,102.00
             32.00,102.00 96.00,102.00 96.00,102.00
             100.80,101.99 105.81,102.01 110.00,99.28
             120.00,92.74 121.54,74.82 113.74,66.09
             109.35,61.19 104.23,59.88 98.00,59.00
             97.80,49.90 94.89,39.60 87.91,33.33 Z
           M 48.18,51.87
           C 53.23,51.47 59.43,62.96 64.00,62.96
             68.57,62.96 74.77,51.47 79.82,51.87
             81.49,52.00 84.50,54.89 86.00,56.00
             83.10,62.13 75.88,68.12 71.00,73.00
             76.24,76.75 83.25,83.18 86.00,89.00
             84.80,89.99 82.23,92.40 80.91,92.85
             74.99,94.85 69.14,82.04 64.00,82.04
             58.86,82.04 53.01,94.85 47.09,92.85
             45.77,92.40 43.20,89.99 42.00,89.00
             44.90,82.87 52.12,76.88 57.00,72.00
             51.76,68.25 44.75,61.82 42.00,56.00
             43.50,54.89 46.51,52.00 48.18,51.87 Z" />
</svg>
