<?xml version="1.0" encoding="UTF-8" standalone="no"?>
<!DOCTYPE svg PUBLIC "-//W3C//DTD SVG 20010904//EN"
              "http://www.w3.org/TR/2001/REC-SVG-20010904/DTD/svg10.dtd">

<svg xmlns="http://www.w3.org/2000/svg"
     width="1.77756in" height="1.77756in"
     viewBox="0 0 128 128">
  <path id="Selection"
        fill="none" stroke="black" stroke-width="1"
        d="M 44.00,8.00
           C 44.00,8.00 44.00,18.00 44.00,18.00
             44.06,27.55 46.31,25.80 54.00,28.55
             54.00,28.55 63.00,32.28 63.00,32.28
             64.79,32.52 80.03,26.67 81.40,25.28
             83.96,22.67 83.00,11.83 83.00,8.00
             83.00,8.00 91.00,8.00 91.00,8.00
             91.00,14.46 91.46,29.50 90.33,35.00
             88.91,41.95 83.29,61.19 84.38,67.00
             84.38,67.00 96.58,101.00 96.58,101.00
             97.61,104.54 99.93,111.30 98.40,114.78
             97.28,117.32 94.50,118.04 92.00,118.53
             92.00,118.53 74.00,120.00 74.00,120.00
             74.00,120.00 56.00,120.00 56.00,120.00
             56.00,120.00 43.00,119.01 43.00,119.01
             39.54,118.89 32.14,118.70 30.02,115.57
             27.89,112.42 30.27,105.36 31.34,102.00
             31.34,102.00 43.39,68.00 43.39,68.00
             44.96,61.58 39.19,42.54 37.66,35.00
             36.54,29.40 37.00,14.53 37.00,8.00
             37.00,8.00 44.00,8.00 44.00,8.00 Z
           M 44.00,32.00
           C 44.00,32.00 50.54,67.00 50.54,67.00
             50.54,67.00 44.19,85.00 44.19,85.00
             44.19,85.00 35.00,112.00 35.00,112.00
             35.00,112.00 50.00,113.00 50.00,113.00
             50.00,113.00 93.00,112.00 93.00,112.00
             93.00,112.00 83.19,83.00 83.19,83.00
             83.19,83.00 77.30,66.00 77.30,66.00
             77.30,66.00 84.00,32.00 84.00,32.00
             75.32,33.34 68.39,36.38 65.00,45.00
             65.00,45.00 63.00,45.00 63.00,45.00
             59.59,36.32 52.75,33.24 44.00,32.00 Z" />
</svg>
