<?xml version="1.0" encoding="UTF-8" standalone="no"?>
<!DOCTYPE svg PUBLIC "-//W3C//DTD SVG 20010904//EN"
              "http://www.w3.org/TR/2001/REC-SVG-20010904/DTD/svg10.dtd">

<svg xmlns="http://www.w3.org/2000/svg"
     width="1.77756in" height="1.77756in"
     viewBox="0 0 128 128">
  <path id="Selection"
        fill="none" stroke="black" stroke-width="1"
        d="M 22.91,58.00
           C 23.46,50.08 23.09,43.80 28.39,37.00
             31.02,33.62 35.17,29.95 39.00,27.99
             55.27,19.67 87.05,20.80 99.07,36.09
             105.21,43.89 104.32,48.15 105.17,57.00
             105.17,57.00 106.00,73.00 106.00,73.00
             110.66,70.61 118.73,67.50 124.08,69.60
             130.96,72.42 127.48,82.58 124.08,86.96
             118.75,94.28 107.57,98.50 99.00,100.85
             78.19,106.54 49.81,106.54 29.00,100.85
             17.15,97.61 -1.42,90.19 0.11,75.02
             1.17,64.47 16.32,70.09 22.00,73.00
             22.00,73.00 22.91,58.00 22.91,58.00 Z
           M 26.01,59.00
           C 25.96,61.25 25.73,65.66 27.02,67.49
             28.46,69.54 33.59,70.90 36.00,71.65
             42.46,73.67 55.26,75.92 62.00,76.00
             71.53,76.11 82.92,74.56 92.00,71.66
             94.42,70.88 99.53,69.55 100.98,67.49
             102.28,65.64 102.02,61.27 102.00,59.00
             101.94,54.35 101.06,47.18 99.08,43.00
             91.58,27.15 70.16,25.85 55.00,27.29
             35.48,30.53 26.50,38.78 26.01,59.00 Z
           M 107.57,76.96
           C 105.05,79.52 106.94,82.02 102.85,84.44
             95.24,88.97 71.11,93.34 62.00,92.96
             53.20,92.59 33.72,88.90 26.06,84.95
             21.01,82.35 22.94,80.28 21.01,77.63
             17.77,73.20 8.93,71.71 4.00,73.00
             8.55,82.76 18.38,86.16 28.00,89.33
             49.23,96.32 73.47,96.74 95.00,90.85
             104.75,88.18 121.37,83.53 123.00,72.00
             118.41,72.21 110.91,73.59 107.57,76.96 Z
           M 42.00,86.68
           C 56.93,89.92 70.04,89.97 85.00,86.68
             88.72,86.00 98.93,83.68 100.98,80.58
             102.29,78.60 102.00,74.38 102.00,72.00
             77.10,80.30 51.75,82.86 27.00,72.00
             22.60,83.09 33.88,84.76 42.00,86.68 Z
           M 5.00,82.00
           C 5.00,82.00 6.00,83.00 6.00,83.00
             6.00,83.00 6.00,82.00 6.00,82.00
             6.00,82.00 5.00,82.00 5.00,82.00 Z
           M 122.00,82.00
           C 122.00,82.00 123.00,83.00 123.00,83.00
             123.00,83.00 123.00,82.00 123.00,82.00
             123.00,82.00 122.00,82.00 122.00,82.00 Z
           M 35.00,98.58
           C 52.42,102.42 78.67,102.10 96.00,97.87
             106.11,95.40 115.71,91.69 122.00,83.00
             114.45,85.89 111.93,89.58 98.00,93.57
             72.63,100.84 42.24,100.06 18.00,89.14
             18.00,89.14 7.00,83.00 7.00,83.00
             9.30,91.67 27.03,96.82 35.00,98.58 Z" />
</svg>
