<?xml version="1.0" encoding="UTF-8" standalone="no"?>
<!DOCTYPE svg PUBLIC "-//W3C//DTD SVG 20010904//EN"
              "http://www.w3.org/TR/2001/REC-SVG-20010904/DTD/svg10.dtd">

<svg xmlns="http://www.w3.org/2000/svg"
     width="1.77756in" height="1.77756in"
     viewBox="0 0 128 128">
  <path id="Selection"
        fill="none" stroke="black" stroke-width="1"
        d="M 0.00,82.00
           C 0.00,82.00 0.00,60.00 0.00,60.00
             0.02,49.70 3.84,39.85 6.58,30.00
             6.58,30.00 12.27,10.42 12.27,10.42
             14.44,7.21 28.73,3.41 33.00,2.00
             41.81,-0.89 49.84,0.00 59.00,0.16
             59.00,0.16 89.00,0.16 89.00,0.16
             89.00,0.16 98.00,3.00 98.00,3.00
             101.49,4.16 113.15,7.47 115.18,9.70
             117.12,11.83 120.63,27.18 121.71,31.00
             124.39,40.43 127.98,50.16 128.00,60.00
             128.00,60.00 128.00,81.00 128.00,81.00
             128.00,81.00 126.00,110.00 126.00,110.00
             126.00,110.00 105.00,110.00 105.00,110.00
             105.00,110.00 105.00,94.00 105.00,94.00
             105.00,94.00 105.99,80.00 105.99,80.00
             106.17,71.69 103.25,57.65 100.00,50.00
             100.00,50.00 98.59,76.00 98.59,76.00
             98.59,76.00 106.00,118.00 106.00,118.00
             101.20,121.12 86.53,129.46 81.00,126.94
             73.33,123.43 74.97,115.01 64.00,115.01
             53.03,115.01 54.67,123.43 47.00,126.94
             41.47,129.46 26.80,121.12 22.00,118.00
             26.49,95.66 31.09,82.39 28.28,59.00
             27.81,55.08 28.16,54.08 27.00,50.00
             27.00,50.00 22.09,75.00 22.09,75.00
             22.09,75.00 23.00,93.00 23.00,93.00
             23.00,93.00 23.00,110.00 23.00,110.00
             23.00,110.00 2.00,110.00 2.00,110.00
             2.00,110.00 0.00,82.00 0.00,82.00 Z
           M 45.00,3.00
           C 45.00,3.00 50.02,6.84 50.02,6.84
             50.02,6.84 60.00,6.84 60.00,6.84
             60.00,6.84 79.89,5.98 79.89,5.98
             79.89,5.98 83.00,3.00 83.00,3.00
             83.00,3.00 45.00,3.00 45.00,3.00 Z
           M 23.00,9.33
           C 20.82,10.06 17.38,10.99 15.82,12.70
             14.14,14.55 11.47,25.87 10.58,29.00
             4.96,48.73 2.76,52.18 3.00,73.00
             3.00,73.00 3.91,83.00 3.91,83.00
             3.91,83.00 4.83,97.00 4.83,97.00
             5.06,99.34 4.62,103.41 6.60,104.98
             8.52,106.50 17.23,106.00 20.00,106.00
             18.36,96.82 18.16,74.05 20.00,65.00
             22.02,55.11 26.92,43.05 27.00,34.00
             32.35,37.36 30.71,42.48 31.09,48.00
             31.09,48.00 31.91,55.00 31.91,55.00
             31.91,55.00 33.00,72.00 33.00,72.00
             33.14,84.38 29.22,103.85 26.00,116.00
             29.53,118.01 40.18,123.90 43.96,123.48
             48.07,123.02 52.86,115.34 54.94,112.00
             64.56,96.52 62.03,82.38 62.00,65.00
             61.98,54.35 58.97,48.89 53.31,40.00
             49.84,34.57 45.21,30.56 45.00,24.00
             45.00,24.00 41.08,21.69 41.08,21.69
             41.08,21.69 41.08,15.00 41.08,15.00
             41.08,15.00 40.00,4.00 40.00,4.00
             40.00,4.00 23.00,9.33 23.00,9.33 Z
           M 45.60,19.98
           C 46.83,20.96 48.53,20.88 50.00,21.00
             50.00,21.00 49.05,27.00 49.05,27.00
             49.05,27.00 60.00,43.00 60.00,43.00
             58.82,29.88 51.22,19.08 45.00,8.00
             43.91,10.75 42.94,17.87 45.60,19.98 Z
           M 70.69,32.00
           C 69.34,35.80 67.70,39.06 69.00,43.00
             69.00,43.00 78.79,27.00 78.79,27.00
             78.79,27.00 78.00,21.00 78.00,21.00
             85.11,20.41 84.00,18.07 84.00,8.00
             77.70,14.42 73.68,23.60 70.69,32.00 Z
           M 51.00,11.00
           C 55.89,20.26 61.38,29.50 63.00,40.00
             63.00,40.00 65.00,40.00 65.00,40.00
             66.62,29.50 72.11,20.26 77.00,11.00
             77.00,11.00 51.00,11.00 51.00,11.00 Z
           M 71.98,69.09
           C 73.66,68.79 75.53,65.91 71.26,64.91
             67.94,67.22 70.37,69.37 71.98,69.09 Z
           M 71.98,81.09
           C 73.66,80.79 75.53,77.91 71.26,76.91
             67.94,79.22 70.37,81.37 71.98,81.09 Z
           M 76.00,95.00
           C 80.59,98.95 87.95,94.89 93.00,93.00
             93.00,93.00 93.00,91.00 93.00,91.00
             93.00,91.00 92.00,90.00 92.00,90.00
             92.00,90.00 76.00,95.00 76.00,95.00 Z
           M 52.00,95.00
           C 52.00,95.00 52.00,97.00 52.00,97.00
             52.00,97.00 51.00,98.00 51.00,98.00
             51.00,98.00 35.00,93.00 35.00,93.00
             35.00,93.00 35.00,91.00 35.00,91.00
             40.74,89.89 46.78,92.71 52.00,95.00 Z
           M 59.00,112.00
           C 59.00,112.00 69.00,112.00 69.00,112.00
             69.00,112.00 64.00,102.00 64.00,102.00
             64.00,102.00 59.00,112.00 59.00,112.00 Z" />
</svg>
