<?xml version="1.0" encoding="UTF-8" standalone="no"?>
<!DOCTYPE svg PUBLIC "-//W3C//DTD SVG 20010904//EN"
              "http://www.w3.org/TR/2001/REC-SVG-20010904/DTD/svg10.dtd">

<svg xmlns="http://www.w3.org/2000/svg"
     width="1.77756in" height="1.77756in"
     viewBox="0 0 128 128">
  <path id="Selection"
        fill="none" stroke="black" stroke-width="1"
        d="M 81.00,38.00
           C 84.90,29.75 88.58,32.48 92.89,39.00
             97.37,45.76 97.88,52.28 96.00,60.00
             101.70,60.20 106.79,63.31 102.83,69.61
             101.36,71.94 98.54,72.62 97.02,75.21
             95.48,77.83 96.50,80.78 94.26,83.61
             91.88,86.63 77.86,92.95 74.00,92.67
             70.11,92.39 67.79,90.19 66.00,87.00
             66.00,87.00 51.00,94.14 51.00,94.14
             51.00,94.14 40.00,99.14 40.00,99.14
             37.45,100.28 31.77,103.04 29.13,102.58
             25.71,101.99 22.60,95.37 24.70,92.49
             25.80,90.99 30.19,89.12 32.00,88.25
             32.00,88.25 51.00,79.77 51.00,79.77
             53.71,78.53 59.65,76.94 58.09,72.96
             58.09,72.96 53.09,66.00 53.09,66.00
             50.82,62.00 50.32,54.38 51.65,50.00
             53.89,42.57 59.87,40.46 63.26,35.00
             65.28,31.74 64.99,28.66 65.00,25.00
             74.71,25.57 76.32,30.72 81.00,38.00 Z
           M 65.78,40.00
           C 58.91,48.24 48.49,55.94 61.00,67.00
             65.65,59.86 60.89,60.23 62.66,54.00
             63.32,51.68 68.83,42.92 71.80,44.96
             72.90,45.72 73.59,50.50 74.00,52.00
             75.16,51.24 78.23,48.67 79.26,48.58
             85.26,48.05 83.27,57.14 91.00,60.00
             93.30,50.54 91.85,47.03 87.00,39.00
             85.20,40.24 81.14,43.65 79.13,43.66
             75.87,43.70 74.97,37.61 71.00,32.00
             71.00,32.00 65.78,40.00 65.78,40.00 Z
           M 81.00,55.00
           C 74.98,55.79 73.30,57.03 69.00,52.00
             62.11,62.72 75.58,62.25 81.00,55.00 Z
           M 80.00,62.00
           C 80.01,70.39 80.96,79.37 91.00,81.00
             91.00,81.00 91.00,76.00 91.00,76.00
             84.53,75.84 81.03,70.11 86.00,65.00
             86.00,65.00 80.00,62.00 80.00,62.00 Z
           M 88.00,71.00
           C 93.01,70.06 96.46,68.77 100.00,65.00
             94.99,64.93 90.60,66.55 88.00,71.00 Z
           M 66.18,69.41
           C 62.91,74.40 68.45,85.98 74.00,87.19
             76.87,87.82 80.59,85.36 83.00,84.00
             78.01,76.51 75.46,74.50 75.00,65.00
             72.23,65.75 67.84,66.88 66.18,69.41 Z
           M 29.00,95.00
           C 29.00,95.00 30.00,98.00 30.00,98.00
             30.00,98.00 53.00,87.70 53.00,87.70
             57.03,85.88 60.46,85.33 62.00,81.00
             62.00,81.00 29.00,95.00 29.00,95.00 Z" />
</svg>
