<?xml version="1.0" encoding="UTF-8" standalone="no"?>
<!DOCTYPE svg PUBLIC "-//W3C//DTD SVG 20010904//EN"
              "http://www.w3.org/TR/2001/REC-SVG-20010904/DTD/svg10.dtd">

<svg xmlns="http://www.w3.org/2000/svg"
     width="1.77756in" height="1.77756in"
     viewBox="0 0 128 128">
  <path id="Selection"
        fill="none" stroke="black" stroke-width="1"
        d="M 46.00,94.00
           C 46.00,94.00 33.85,111.00 33.85,111.00
             31.58,114.03 29.03,117.57 25.00,118.13
             21.17,118.66 14.63,115.16 11.00,113.58
             6.93,111.80 1.05,109.89 0.24,104.96
             -0.61,99.79 4.95,87.36 6.95,82.00
             6.95,82.00 27.19,28.00 27.19,28.00
             28.67,24.12 32.33,12.00 35.39,10.02
             37.32,8.78 40.75,9.00 43.00,9.00
             43.00,9.00 85.00,9.00 85.00,9.00
             87.22,9.00 90.70,8.78 92.59,10.02
             95.31,11.82 98.98,23.43 100.40,27.00
             100.40,27.00 121.42,83.00 121.42,83.00
             123.53,88.58 130.18,102.34 126.83,107.61
             125.60,109.53 122.99,110.75 121.00,111.74
             115.87,114.28 105.35,120.17 100.04,117.11
             96.45,115.04 91.05,106.68 88.42,103.00
             88.42,103.00 65.00,69.00 65.00,69.00
             65.00,69.00 63.00,69.00 63.00,69.00
             59.68,75.78 50.76,87.31 46.00,94.00 Z
           M 37.51,14.02
           C 37.51,14.02 35.00,18.00 35.00,18.00
             35.00,18.00 56.00,18.00 56.00,18.00
             56.00,18.00 56.00,13.00 56.00,13.00
             56.00,13.00 37.51,14.02 37.51,14.02 Z
           M 60.00,13.00
           C 60.00,13.00 60.00,18.00 60.00,18.00
             60.00,18.00 67.00,18.00 67.00,18.00
             67.00,18.00 67.00,13.00 67.00,13.00
             67.00,13.00 60.00,13.00 60.00,13.00 Z
           M 90.49,14.02
           C 90.49,14.02 70.00,13.00 70.00,13.00
             70.00,13.00 70.00,18.00 70.00,18.00
             70.00,18.00 93.00,18.00 93.00,18.00
             93.00,18.00 90.49,14.02 90.49,14.02 Z
           M 33.00,22.00
           C 33.00,22.00 29.00,36.00 29.00,36.00
             34.55,32.03 38.04,28.66 40.00,22.00
             40.00,22.00 33.00,22.00 33.00,22.00 Z
           M 52.00,22.00
           C 52.00,22.00 45.39,22.57 45.39,22.57
             45.39,22.57 35.91,34.82 35.91,34.82
             35.91,34.82 26.20,42.39 26.20,42.39
             26.20,42.39 18.81,61.00 18.81,61.00
             18.81,61.00 5.00,100.00 5.00,100.00
             5.00,100.00 30.00,110.00 30.00,110.00
             30.00,110.00 51.29,80.00 51.29,80.00
             58.48,69.91 61.99,68.53 62.00,56.00
             66.93,55.13 66.91,53.80 67.00,49.00
             67.00,49.00 67.00,22.00 67.00,22.00
             67.00,22.00 52.00,22.00 52.00,22.00 Z
           M 70.00,22.00
           C 70.00,22.00 70.00,49.00 70.00,49.00
             70.00,49.00 66.48,64.00 66.48,64.00
             66.48,64.00 73.86,76.00 73.86,76.00
             73.86,76.00 90.29,99.00 90.29,99.00
             90.29,99.00 99.18,109.19 99.18,109.19
             99.18,109.19 107.00,107.14 107.00,107.14
             107.00,107.14 123.00,100.00 123.00,100.00
             121.92,93.13 114.29,74.60 111.42,67.00
             111.42,67.00 102.29,43.27 102.29,43.27
             100.58,40.51 96.71,38.93 94.00,36.67
             89.10,32.59 85.79,28.12 84.00,22.00
             84.00,22.00 70.00,22.00 70.00,22.00 Z
           M 88.00,22.00
           C 89.44,29.09 92.90,32.43 99.00,36.00
             99.00,36.00 95.00,22.00 95.00,22.00
             95.00,22.00 88.00,22.00 88.00,22.00 Z
           M 64.00,25.00
           C 63.69,28.95 63.77,29.49 60.00,31.00
             58.26,26.15 59.02,25.40 64.00,25.00 Z
           M 64.00,36.00
           C 64.00,36.00 64.00,41.00 64.00,41.00
             57.27,40.46 57.27,36.54 64.00,36.00 Z
           M 62.43,50.93
           C 60.91,52.09 57.12,50.88 60.30,47.16
             64.36,46.68 63.78,49.90 62.43,50.93 Z
           M 9.00,108.56
           C 13.90,110.88 21.92,116.35 27.00,113.00
             27.00,113.00 4.00,103.00 4.00,103.00
             4.05,106.39 6.13,107.20 9.00,108.56 Z
           M 101.00,114.14
           C 101.00,114.14 105.00,114.14 105.00,114.14
             105.00,114.14 122.71,106.36 122.71,106.36
             122.71,106.36 125.00,103.00 125.00,103.00
             125.00,103.00 101.00,114.14 101.00,114.14 Z" />
</svg>
