<?xml version="1.0" encoding="UTF-8" standalone="no"?>
<!DOCTYPE svg PUBLIC "-//W3C//DTD SVG 20010904//EN"
              "http://www.w3.org/TR/2001/REC-SVG-20010904/DTD/svg10.dtd">

<svg xmlns="http://www.w3.org/2000/svg"
     width="1.77778in" height="1.77778in"
     viewBox="0 0 128 128">
  <path id="Selection"
        fill="none" stroke="black" stroke-width="1"
        d="M 40.00,81.07
           C 19.12,72.87 14.51,45.58 30.04,30.04
             45.58,14.51 72.87,19.12 81.07,40.00
             85.88,52.22 82.26,61.99 77.00,73.00
             84.95,74.28 93.17,84.07 98.28,90.00
             101.27,93.48 105.17,96.50 100.84,100.84
             96.50,105.17 93.48,101.27 90.00,98.28
             84.07,93.17 74.28,84.95 73.00,77.00
             61.99,82.26 52.22,85.88 40.00,81.07 Z
           M 56.00,72.18
           C 74.52,68.37 78.43,45.04 63.00,34.70
             58.32,31.57 52.36,31.67 47.00,32.39
             20.93,40.23 31.50,77.21 56.00,72.18 Z" />
</svg>
