<?xml version="1.0" encoding="UTF-8" standalone="no"?>
<!DOCTYPE svg PUBLIC "-//W3C//DTD SVG 20010904//EN"
              "http://www.w3.org/TR/2001/REC-SVG-20010904/DTD/svg10.dtd">

<svg xmlns="http://www.w3.org/2000/svg"
     width="1.77756in" height="1.77756in"
     viewBox="0 0 128 128">
  <path id="Selection #1"
        fill="none" stroke="black" stroke-width="1"
        d="M 71.17,78.00
           C 65.77,83.99 63.60,87.93 57.00,93.83
             48.02,101.86 33.15,109.06 22.00,113.85
             18.71,115.26 10.22,118.99 7.04,119.43
             -0.12,120.44 -1.17,105.70 0.60,101.01
             3.33,93.79 20.01,88.43 26.21,79.99
             35.71,67.07 36.46,43.79 43.13,35.23
             46.89,30.39 51.90,32.76 57.00,32.96
             62.35,33.17 65.17,32.51 70.00,30.22
             75.73,27.49 79.51,24.83 83.70,20.00
             87.00,16.20 90.34,10.15 95.04,8.24
             100.30,6.10 104.39,9.52 107.96,13.04
             113.83,18.83 126.09,34.19 128.00,42.00
             128.00,42.00 91.00,68.00 91.00,68.00
             91.00,68.00 86.00,62.00 86.00,62.00
             81.73,67.96 76.05,72.57 71.17,78.00 Z
           M 108.81,20.00
           C 106.65,17.50 101.48,11.66 98.01,11.74
             93.96,11.84 89.71,19.04 87.33,22.00
             82.82,27.61 76.66,31.84 70.00,34.55
             65.31,36.45 62.07,37.16 57.00,36.96
             51.08,36.73 48.67,34.27 45.00,40.00
             50.13,41.67 49.62,44.54 44.00,43.00
             44.00,43.00 43.00,46.00 43.00,46.00
             43.00,46.00 48.00,46.00 48.00,46.00
             48.00,46.00 47.00,51.00 47.00,51.00
             47.00,51.00 41.00,50.00 41.00,50.00
             41.00,50.00 47.00,53.00 47.00,53.00
             47.00,53.00 47.00,55.00 47.00,55.00
             47.00,55.00 40.00,55.00 40.00,55.00
             40.00,55.00 45.00,58.00 45.00,58.00
             45.00,58.00 45.00,62.00 45.00,62.00
             45.00,62.00 38.00,61.00 38.00,61.00
             36.37,71.55 31.47,81.79 23.00,88.48
             18.51,92.03 6.67,97.93 4.31,102.18
             3.27,104.06 3.19,105.94 3.00,108.00
             15.21,103.92 32.75,96.64 43.00,89.08
             51.95,82.48 55.27,76.66 62.17,69.00
             62.17,69.00 73.00,58.00 73.00,58.00
             83.85,47.28 100.19,35.54 113.00,27.00
             111.76,23.84 111.07,22.61 108.81,20.00 Z
           M 96.00,43.13
           C 88.94,48.41 76.01,58.87 70.17,65.04
             56.63,79.35 54.53,86.96 36.00,97.57
             28.64,101.79 20.90,105.12 13.00,108.19
             8.04,110.12 4.66,109.97 6.00,116.00
             21.69,110.56 42.46,101.37 54.99,90.56
             54.99,90.56 74.04,69.00 74.04,69.00
             83.67,58.98 106.81,40.84 119.00,34.00
             119.00,34.00 117.00,30.00 117.00,30.00
             110.27,31.98 101.76,38.82 96.00,43.13 Z
           M 98.00,52.65
           C 94.12,55.65 91.27,56.88 91.00,62.00
             96.64,59.80 108.05,50.39 114.00,46.34
             118.22,43.47 121.71,42.49 122.00,37.00
             115.11,39.19 104.01,48.00 98.00,52.65 Z" />
</svg>
