<?xml version="1.0" encoding="UTF-8" standalone="no"?>
<!DOCTYPE svg PUBLIC "-//W3C//DTD SVG 20010904//EN"
              "http://www.w3.org/TR/2001/REC-SVG-20010904/DTD/svg10.dtd">

<svg xmlns="http://www.w3.org/2000/svg"
     width="1.77756in" height="1.77756in"
     viewBox="0 0 128 128">
  <path id="Selection"
        fill="none" stroke="black" stroke-width="1"
        d="M 5.08,66.00
           C 3.29,55.40 0.90,53.63 0.21,49.00
             -0.53,44.02 0.77,38.70 2.36,34.00
             5.29,25.29 13.59,9.22 25.00,12.65
             31.71,14.67 36.65,22.47 40.33,28.00
             47.83,39.24 55.32,53.09 64.17,63.00
             69.30,68.75 76.74,76.05 84.00,78.88
             92.67,82.26 94.53,79.78 99.00,80.48
             102.41,81.01 106.60,84.15 110.00,85.65
             110.00,85.65 119.82,89.14 119.82,89.14
             124.29,91.92 128.54,101.72 127.84,106.98
             127.11,112.41 121.52,113.29 117.00,114.19
             106.82,116.22 92.52,116.02 82.00,116.00
             76.78,115.99 57.76,115.16 54.21,112.42
             51.11,110.02 46.72,99.94 44.75,96.00
             37.82,82.14 31.52,66.48 17.00,59.00
             17.00,59.00 18.00,94.00 18.00,94.00
             18.00,94.00 19.00,110.00 19.00,110.00
             19.00,110.00 9.00,110.00 9.00,110.00
             9.00,110.00 5.08,66.00 5.08,66.00 Z
           M 14.04,88.00
           C 14.04,88.00 14.04,75.00 14.04,75.00
             14.04,75.00 13.12,63.00 13.12,63.00
             14.11,51.72 23.14,57.53 27.99,62.09
             37.83,71.36 43.12,84.02 48.78,96.00
             50.31,99.23 53.98,107.21 56.53,109.26
             59.12,111.35 68.50,111.96 72.00,112.00
             72.00,112.00 102.00,112.00 102.00,112.00
             106.70,111.99 121.65,111.44 123.80,106.78
             124.94,104.29 122.84,99.25 121.59,97.00
             118.21,90.96 115.53,91.67 110.00,89.53
             106.26,88.09 100.59,84.24 97.00,84.34
             94.13,84.42 88.33,87.56 85.00,88.64
             76.05,91.55 68.39,90.33 61.00,84.48
             49.15,75.09 40.49,51.01 34.14,37.00
             32.30,32.95 24.72,18.57 20.91,17.25
             18.28,16.34 15.91,18.35 14.21,20.11
             10.22,24.22 7.16,31.58 5.35,37.00
             0.75,50.83 5.36,48.33 8.20,63.00
             8.20,63.00 12.00,102.00 12.00,102.00
             12.00,102.00 15.00,102.00 15.00,102.00
             15.00,102.00 14.04,88.00 14.04,88.00 Z
           M 28.00,19.00
           C 28.00,19.00 29.00,20.00 29.00,20.00
             29.00,20.00 29.00,19.00 29.00,19.00
             29.00,19.00 28.00,19.00 28.00,19.00 Z
           M 29.00,20.00
           C 29.00,20.00 30.00,21.00 30.00,21.00
             30.00,21.00 30.00,20.00 30.00,20.00
             30.00,20.00 29.00,20.00 29.00,20.00 Z
           M 40.14,42.00
           C 45.40,53.82 51.00,69.76 60.04,78.98
             67.43,86.53 76.39,89.88 86.00,84.00
             77.50,78.76 75.15,80.06 66.04,70.96
             52.02,56.96 42.80,35.77 32.00,23.00
             31.72,27.42 38.08,37.38 40.14,42.00 Z" />
</svg>
