<?xml version="1.0" encoding="UTF-8" standalone="no"?>
<!DOCTYPE svg PUBLIC "-//W3C//DTD SVG 20010904//EN"
              "http://www.w3.org/TR/2001/REC-SVG-20010904/DTD/svg10.dtd">

<svg xmlns="http://www.w3.org/2000/svg"
     width="1.77756in" height="1.77756in"
     viewBox="0 0 128 128">
  <path id="Selection"
        fill="none" stroke="black" stroke-width="1"
        d="M 15.04,61.30
           C 12.53,60.59 10.65,57.98 9.16,56.00
             5.61,51.28 -2.07,42.88 1.60,37.00
             3.31,34.28 7.50,31.05 10.00,28.85
             22.88,17.50 20.87,18.52 37.00,14.15
             39.51,13.47 47.74,10.99 49.79,11.39
             53.74,12.14 55.83,19.63 64.00,19.63
             72.18,19.63 74.26,12.10 78.21,11.47
             80.19,11.15 88.61,13.50 91.00,14.15
             107.11,18.51 105.15,17.53 118.00,28.85
             120.70,31.22 125.46,34.82 126.96,38.00
             129.43,43.24 121.35,52.89 118.10,56.98
             116.73,58.70 115.18,60.67 112.96,61.30
             109.13,62.38 103.10,58.02 100.00,56.00
             100.00,56.00 100.00,108.00 100.00,108.00
             99.94,116.74 98.24,116.98 90.00,117.00
             90.00,117.00 38.00,117.00 38.00,117.00
             29.26,116.94 29.02,115.24 29.00,107.00
             29.00,107.00 29.00,56.00 29.00,56.00
             25.52,57.67 18.72,62.34 15.04,61.30 Z" />
</svg>
