<?xml version="1.0" encoding="UTF-8" standalone="no"?>
<!DOCTYPE svg PUBLIC "-//W3C//DTD SVG 20010904//EN"
              "http://www.w3.org/TR/2001/REC-SVG-20010904/DTD/svg10.dtd">

<svg xmlns="http://www.w3.org/2000/svg"
     width="1.77756in" height="1.77756in"
     viewBox="0 0 128 128">
  <path id="Selection"
        fill="none" stroke="black" stroke-width="1"
        d="M 86.65,11.00
           C 89.13,23.79 74.87,23.72 75.00,35.42
             75.03,37.71 76.87,42.53 77.57,45.00
             77.57,45.00 81.58,63.00 81.58,63.00
             81.58,63.00 85.83,108.00 85.83,108.00
             86.38,115.14 82.33,116.67 77.00,120.34
             74.44,122.10 68.76,126.59 66.00,127.09
             61.64,127.88 51.74,120.55 48.00,118.00
             46.35,116.87 44.05,115.42 43.03,113.68
             41.33,110.77 43.56,97.97 43.93,94.00
             43.93,94.00 50.00,55.00 50.00,55.00
             51.01,50.15 54.40,39.16 53.94,35.00
             52.62,23.03 38.06,19.20 42.74,8.10
             45.93,0.51 59.28,1.31 66.00,0.46
             73.27,0.10 85.03,2.60 86.65,11.00 Z
           M 51.00,4.93
           C 42.98,7.17 42.59,12.80 47.08,19.00
             46.97,17.23 46.68,13.23 47.08,11.73
             50.45,1.26 67.38,7.02 75.00,4.00
             68.99,4.00 56.20,3.47 51.00,4.93 Z
           M 84.00,18.00
           C 84.00,12.90 84.76,10.81 81.00,7.00
             81.00,7.00 84.00,18.00 84.00,18.00 Z
           M 51.57,10.14
           C 48.87,12.45 49.90,17.92 52.31,20.05
             56.74,23.95 64.37,24.77 70.00,23.78
             79.86,22.04 82.68,12.61 77.71,9.65
             73.95,7.41 61.55,7.85 57.00,8.30
             55.27,8.65 52.97,8.94 51.57,10.14 Z
           M 80.00,21.00
           C 80.00,21.00 81.00,22.00 81.00,22.00
             81.00,22.00 81.00,21.00 81.00,21.00
             81.00,21.00 80.00,21.00 80.00,21.00 Z
           M 54.00,27.00
           C 54.84,28.91 55.88,31.78 57.64,32.99
             59.72,34.47 69.41,34.44 71.49,32.99
             73.39,31.65 74.28,28.13 75.00,26.00
             75.00,26.00 54.00,27.00 54.00,27.00 Z
           M 82.83,99.00
           C 82.83,99.00 77.12,56.00 77.12,56.00
             76.29,52.28 74.22,40.07 71.44,38.02
             69.68,36.73 65.20,36.96 63.00,37.00
             61.30,37.04 58.99,36.97 57.56,38.02
             55.05,39.88 53.49,51.54 52.80,55.00
             52.80,55.00 45.00,113.00 45.00,113.00
             49.29,115.41 61.03,124.28 65.00,124.19
             68.64,124.11 80.36,115.43 84.00,113.00
             82.37,106.30 83.40,105.00 82.83,99.00 Z" />
</svg>
