<?xml version="1.0" encoding="UTF-8" standalone="no"?>
<!DOCTYPE svg PUBLIC "-//W3C//DTD SVG 20010904//EN"
              "http://www.w3.org/TR/2001/REC-SVG-20010904/DTD/svg10.dtd">

<svg xmlns="http://www.w3.org/2000/svg"
     width="1.77756in" height="1.77756in"
     viewBox="0 0 128 128">
  <path id="Selection"
        fill="none" stroke="black" stroke-width="1"
        d="M 60.00,6.00
           C 82.95,5.89 87.44,12.58 107.00,21.00
             102.88,30.89 96.65,36.10 101.60,51.00
             103.70,57.32 107.73,60.09 108.72,65.00
             109.53,68.96 108.36,73.07 108.04,77.00
             108.04,77.00 108.04,96.00 108.04,96.00
             108.00,97.95 108.13,101.05 107.40,102.83
             105.38,107.81 90.32,118.41 85.00,120.52
             77.05,123.68 69.95,122.14 68.00,113.00
             68.00,113.00 60.00,113.00 60.00,113.00
             58.03,122.22 51.00,123.59 43.00,120.53
             37.55,118.45 23.57,108.84 21.02,103.96
             19.81,101.64 20.01,98.57 19.96,96.00
             19.96,96.00 19.96,81.00 19.96,81.00
             19.96,81.00 19.01,72.00 19.01,72.00
             18.64,56.21 26.15,59.64 27.83,44.00
             29.29,30.35 24.70,30.53 21.00,21.00
             33.53,15.60 46.08,6.07 60.00,6.00 Z
           M 49.00,12.00
           C 49.00,12.00 61.71,68.00 61.71,68.00
             61.71,68.00 63.00,95.00 63.00,95.00
             63.00,95.00 62.00,110.00 62.00,110.00
             62.00,110.00 67.00,110.00 67.00,110.00
             60.34,72.86 71.91,47.23 79.00,12.00
             69.66,9.30 58.06,7.80 49.00,12.00 Z
           M 27.00,22.00
           C 28.61,28.75 31.82,31.57 31.82,40.00
             31.82,43.74 30.00,52.56 28.47,56.00
             25.59,62.50 23.15,61.88 23.00,70.00
             23.00,70.00 23.00,93.00 23.00,93.00
             23.00,95.09 22.88,98.06 23.60,100.00
             25.61,105.47 35.86,112.54 41.00,115.33
             47.27,118.73 53.59,119.74 56.87,112.00
             60.60,103.19 59.72,91.27 58.90,82.00
             58.90,82.00 58.90,72.00 58.90,72.00
             58.90,72.00 46.00,14.00 46.00,14.00
             46.00,14.00 27.00,22.00 27.00,22.00 Z
           M 82.00,14.00
           C 82.00,14.00 69.10,73.00 69.10,73.00
             69.10,73.00 69.10,83.00 69.10,83.00
             68.42,90.41 68.31,106.32 71.36,112.96
             74.89,120.61 82.26,117.92 88.00,114.66
             90.92,113.00 93.39,111.08 96.00,109.00
             104.62,102.12 104.98,99.73 105.00,89.00
             105.00,89.00 105.00,72.00 105.00,72.00
             104.97,59.25 100.88,62.59 97.76,51.00
             94.37,38.43 96.90,34.38 101.00,23.00
             101.00,23.00 82.00,14.00 82.00,14.00 Z
           M 57.34,75.79
           C 55.62,80.51 47.66,77.90 51.60,72.03
             54.70,70.82 58.86,71.64 57.34,75.79 Z
           M 57.34,86.87
           C 55.69,91.54 48.03,88.79 51.75,83.00
             54.93,81.73 58.79,82.80 57.34,86.87 Z
           M 54.00,85.00
           C 54.00,85.00 55.00,86.00 55.00,86.00
             55.00,86.00 55.00,85.00 55.00,85.00
             55.00,85.00 54.00,85.00 54.00,85.00 Z
           M 56.43,98.81
           C 53.76,100.76 47.84,98.04 52.31,93.04
             58.84,91.04 58.47,97.31 56.43,98.81 Z
           M 54.00,95.00
           C 54.00,95.00 55.00,96.00 55.00,96.00
             55.00,96.00 55.00,95.00 55.00,95.00
             55.00,95.00 54.00,95.00 54.00,95.00 Z
           M 54.57,108.81
           C 51.30,110.95 47.26,107.79 50.60,103.03
             57.05,100.46 57.67,106.78 54.57,108.81 Z
           M 52.00,105.00
           C 52.00,105.00 53.00,106.00 53.00,106.00
             53.00,106.00 53.00,105.00 53.00,105.00
             53.00,105.00 52.00,105.00 52.00,105.00 Z" />
</svg>
